<?xml version="1.0" encoding="utf-8"?>
<!-- Generator: Adobe Illustrator 26.5.0, SVG Export Plug-In . SVG Version: 6.00 Build 0)  -->
<svg version="1.1" id="Capa_1" xmlns="http://www.w3.org/2000/svg" xmlns:xlink="http://www.w3.org/1999/xlink" x="0px" y="0px"
	 viewBox="0 0 211.4 63.9" style="enable-background:new 0 0 211.4 63.9;" xml:space="preserve">
<style type="text/css">
	.st0{fill:#C1272D;}
	.st1{fill:#272727;}
	.st2{enable-background:new    ;}
</style>
<g id="Layer_2">
</g>
<g id="Layer_1">
	<g>
		<g>
			<g>
				<path class="st0" d="M43.1,34.9c-7.5,6.3-5.9-1.9-5.9,27h6.7C43.8,30,44.2,34,43.1,34.9z M41.3,57.3c-2,0-1.5,2.8-1.5-14.3
					C41.8,43.1,41.3,40.2,41.3,57.3z"/>
				<path class="st0" d="M43.8,11h-6.7v16.8C45.7,25.5,43.8,27.8,43.8,11z M39.7,21c0-8.5-0.5-7.1,1.5-7.1
					C41.3,22.4,41.8,21,39.7,21z"/>
			</g>
			<path class="st1" d="M36.8,3.4C79.4,5.8,76.8,32,8,28.4c0,5.5-1.3,4.4,5,4.4c0.1,2.8,1.1,2.1-5,2.2v4.4
				C85.6,34.9,82.3,1,36.8,3.4z M45.8,4C39.8,3.3,40,3.7,40,3.4C46.5,3.6,45.8,3.8,45.8,4z M54.7,5.7c-6-1.8-5.7-0.9-5.6-1.6
				C50.4,4.4,54.9,5,54.7,5.7z M62.9,9.6c-3.5-2.6-5.2-2.2-4.8-3.2C58.7,6.6,63.7,8.5,62.9,9.6z M16.4,34.7c-0.1-2.7-1.2-2,5.7-2.3
				C22.3,35,23.4,34.3,16.4,34.7z M25.7,34.1c-0.2-2.5-1.3-1.7,5.6-2.4C31.5,34,32.6,33.3,25.7,34.1z M34.8,32.9
				c-0.3-2.3-1.4-1.3,5.4-2.5C40.6,32.2,41.6,31.8,34.8,32.9z M43.9,31.1c-0.5-2.1-1.4-0.9,5.2-2.8C49.6,29.8,50.6,29.5,43.9,31.1z
				 M52.8,28.5c-0.7-2-1.2-0.3,4.9-3.3C58.1,26.1,59.3,26,52.8,28.5z M63.5,22.6c-2.7,2.4-2.4,1.8-2.9,0.9c1.6-1,3.1-2.2,4.3-3.6
				C65.4,20.3,66.2,20.2,63.5,22.6z M67.1,17.2c-1.7-0.5-0.1,0.1-0.7-2.9c-0.7-3.1-1.8-2-0.6-2.9C67.1,13.2,67.6,15.2,67.1,17.2z"/>
		</g>
	</g>
	<rect x="49.1" y="47.8" class="st0" width="16.9" height="4.2"/>
	<g class="st2">
		<path d="M89.6,57H85l-1.9-5.7H74L72.1,57h-3.7l7.9-23.8h5.3L89.6,57z M82,48l-3.5-10.6L75,48H82z"/>
		<path d="M90,51.3l4.2-0.9c0.5,2.4,2.4,3.5,5.7,3.5c1.5,0,2.7-0.3,3.5-0.9s1.2-1.4,1.2-2.2c0-0.7-0.2-1.3-0.6-1.8s-1.2-1-2.4-1.3
			l-4.5-1.2c-1.6-0.4-2.7-0.9-3.4-1.4c-0.7-0.5-1.3-1.2-1.8-2.2c-0.4-0.9-0.7-1.9-0.7-3c0-2.1,0.8-3.8,2.4-5.1
			c1.6-1.3,3.6-1.9,6.1-1.9c2,0,3.9,0.4,5.5,1.3s2.6,2.2,3.1,3.8l-4.1,1c-0.6-1.8-2.1-2.7-4.4-2.7c-1.3,0-2.4,0.3-3.1,0.8
			c-0.7,0.6-1.1,1.3-1.1,2.1c0,1.4,1.1,2.3,3.3,2.9l4,1c2.4,0.6,4.1,1.5,4.9,2.7c0.8,1.2,1.3,2.5,1.3,4c0,2.3-0.9,4.2-2.6,5.5
			c-1.8,1.3-4,2-6.8,2c-2.4,0-4.4-0.5-6.2-1.5S90.5,53.4,90,51.3z"/>
		<path d="M117.2,57h-4.4V33.3h15v3.7h-10.6v6.5h8.4V47h-8.4V57z"/>
		<path d="M147.9,57h-4.6l-1.9-5.7h-9.1l-1.9,5.7h-3.7l7.9-23.8h5.3L147.9,57z M140.3,48l-3.5-10.6L133.4,48H140.3z"/>
		<path d="M165.4,57h-14.6V33.3h4.5v19.9h10.1V57z"/>
		<path d="M174.8,57h-4.6V36.9h-6.3v-3.7h17.2v3.7h-6.3V57z"/>
		<path d="M192,57.4c-3.2,0-5.6-1.2-7.4-3.6c-1.8-2.4-2.6-5.3-2.6-8.8c0-3.5,0.9-6.4,2.8-8.7s4.3-3.5,7.4-3.5c3.1,0,5.5,1.2,7.3,3.5
			s2.7,5.2,2.7,8.7c0,3.7-0.9,6.6-2.8,8.9S195,57.4,192,57.4z M192,54c1.5,0,2.9-0.6,3.9-1.9c1.1-1.3,1.6-3.6,1.6-6.9
			c0-2.7-0.4-4.9-1.3-6.4c-0.9-1.5-2.3-2.3-4.1-2.3c-3.7,0-5.5,3-5.5,8.9c0,2.9,0.5,5,1.4,6.5S190.3,54,192,54z"/>
	</g>
</g>
</svg>
